<svg width="22" height="20" viewBox="0 0 22 20" fill="none" xmlns="http://www.w3.org/2000/svg">
<path d="M7.84868 16.1043C8.3097 16.415 8.49197 16.7577 8.49197 17.3039C8.49197 17.8716 8.14888 18.375 7.63425 18.5892C7.09818 18.8035 7.03385 18.8035 6.48706 18.5571C5.95098 18.3108 5.70439 17.893 5.70439 17.2076C5.70439 16.8113 5.76872 16.6506 6.0582 16.34M15.7397 17.2076C15.8254 17.5289 15.5038 18.1929 15.1393 18.4607C14.6997 18.782 14.1851 18.8035 13.649 18.5357C12.9092 18.1608 12.6626 17.2611 13.1022 16.5435M6.69076 13.1053C7.06631 13.1061 8.03094 12.9768 11.6334 12.9768C15.1393 12.9768 16.5759 12.9447 16.8976 12.8483C17.1549 12.7733 17.5409 12.5162 17.8304 12.227C18.3235 11.7558 18.345 11.6915 19.4171 8.47829C20.0068 6.67888 20.5 5.05084 20.5 4.84734C20.5 4.33322 20.1462 3.81911 19.6423 3.61561C19.267 3.46565 18.4308 3.44423 12.8878 3.44423H6.53832C6.53832 2.60879 6.24576 1.5887 4.87191 0.919672C3.49807 0.250641 1.42316 1.6664 1.50219 2.60492C1.58122 3.54345 3.78881 2.21253 4.61125 2.95154L4.872 4.28311L5.94154 11.4462M6.15315 12.4592C6.07865 12.5266 6.01629 12.6074 5.94154 12.7042C5.93758 12.7093 5.93358 12.7145 5.92954 12.7197C5.48996 13.2767 5.69367 14.3371 6.31551 14.7548C6.59427 14.9476 6.91591 14.9583 10.4862 15.0118C14.11 15.0654 15.2589 15.0761 15.4734 15.2689C15.602 15.3867 15.6985 15.5367 15.6985 15.6116C15.6985 15.6866 15.8057 15.8575 15.8057 16.0187" stroke="white" stroke-width="1.5" stroke-linecap="round" stroke-linejoin="round"/>
</svg>
