<svg width="20" height="23" viewBox="0 0 20 23" fill="none" xmlns="http://www.w3.org/2000/svg">
<path d="M3.27775 5.9589L3.63417 5.60824L3.27775 5.9589C3.96318 6.65557 5.01835 6.522 5.60559 5.83382C6.27865 5.04508 7.43907 4.09473 9.91488 4.09473C12.423 4.09473 13.8758 5.20374 14.7801 6.11761C15.4682 6.81307 16.6184 6.77599 17.2009 5.93146C17.5643 5.40455 17.604 4.65517 17.1293 4.11891C16.0752 2.92809 13.7424 1.06641 9.91488 1.06641C6.14462 1.06641 4.07415 2.81498 3.1158 4.05979C2.64471 4.67171 2.8012 5.47454 3.27775 5.9589Z" stroke="white"/>
<path d="M0.5 14.4773C0.5 15.8561 1.12125 16.7511 1.91702 17.2778C2.51286 17.6722 3.18977 17.8512 3.74557 17.9062C3.9319 18.5204 4.50251 18.9674 5.17751 18.9674C6.00383 18.9674 6.67369 18.2975 6.67369 17.4712V11.2344C6.67369 10.3811 5.982 9.68945 5.12876 9.68945C4.45746 9.68945 3.87867 10.1197 3.66824 10.7299C3.11666 10.8409 2.43631 11.0967 1.84488 11.5689C1.09389 12.1686 0.5 13.1093 0.5 14.4773Z" stroke="white"/>
<path d="M19.4336 14.4773C19.4336 15.8561 18.8123 16.7511 18.0166 17.2778C17.4207 17.6722 16.7438 17.8512 16.188 17.9062C16.0017 18.5204 15.4311 18.9674 14.7561 18.9674C13.9298 18.9674 13.2599 18.2975 13.2599 17.4712V11.2344C13.2599 10.3811 13.9516 9.68945 14.8048 9.68945C15.4761 9.68945 16.0549 10.1197 16.2654 10.7299C16.8169 10.8409 17.4973 11.0967 18.0887 11.5689C18.8397 12.1686 19.4336 13.1093 19.4336 14.4773Z" stroke="white"/>
<path d="M1.73218 11.5694C1.6721 10.9723 1.4747 8.27556 3.07106 6.05078" stroke="white"/>
<path d="M18.1849 11.5694C18.2751 10.9723 18.5712 8.27556 16.1766 6.05078" stroke="white"/>
<path d="M12.5452 21.0977C15.9125 21.8572 17.8883 20.0342 18.182 16.9942" stroke="white"/>
<circle cx="11.0035" cy="20.8824" r="1.53474" stroke="white"/>
</svg>
