<svg width="58" height="68" viewBox="0 0 58 68" fill="none" xmlns="http://www.w3.org/2000/svg">
<g filter="url(#filter0_f_27_21)">
<path d="M29.51 56.523C29.5041 56.6516 29.4488 56.7729 29.3557 56.8618C29.2625 56.9506 29.1387 57.0001 29.01 57C28.72 57 28.5 56.79 28.49 56.523C28.345 53.355 26.734 51.306 23.658 50.376C13.53 47.968 6 38.863 6 28C6 15.297 16.297 5 29 5C41.703 5 52 15.297 52 28C52 38.863 44.47 47.968 34.342 50.376C31.266 51.306 29.655 53.356 29.512 56.523H29.51Z" fill="#FF0000"/>
</g>
<path d="M29.51 56.523C29.5041 56.6516 29.4488 56.7729 29.3557 56.8618C29.2625 56.9506 29.1387 57.0001 29.01 57C28.72 57 28.5 56.79 28.49 56.523C28.345 53.355 26.734 51.306 23.658 50.376C13.53 47.968 6 38.863 6 28C6 15.297 16.297 5 29 5C41.703 5 52 15.297 52 28C52 38.863 44.47 47.968 34.342 50.376C31.266 51.306 29.655 53.356 29.512 56.523H29.51Z" fill="#FF0000"/>
<path d="M29 68C26.79 68 25 66.21 25 64C25 61.79 26.79 60 29 60C31.21 60 33 61.79 33 64C33 66.21 31.21 68 29 68Z" fill="white"/>
<path fill-rule="evenodd" clip-rule="evenodd" d="M29 66C29.2663 66.006 29.5311 65.9588 29.779 65.861C30.0268 65.7633 30.2526 65.617 30.4431 65.4308C30.6336 65.2446 30.785 65.0222 30.8884 64.7766C30.9918 64.5311 31.0451 64.2674 31.0452 64.001C31.0452 63.7346 30.9921 63.4708 30.8888 63.2253C30.7855 62.9797 30.6343 62.7572 30.4438 62.5709C30.2534 62.3846 30.0277 62.2382 29.7799 62.1403C29.5321 62.0425 29.2673 61.9951 29.0009 62.001C28.4784 62.0125 27.9811 62.2282 27.6156 62.6018C27.25 62.9754 27.0453 63.4773 27.0452 64C27.045 64.5227 27.2495 65.0246 27.6149 65.3984C27.9802 65.7722 28.4774 65.9882 29 66Z" fill="#FF0000"/>
<path d="M28.9999 20C28.9999 20 32.0469 19.352 33.9129 17.01L34.0409 17C34.0409 17 38.5799 27 28.9999 27C19.4199 27 23.9579 17 23.9579 17C24.9879 17.079 25.9669 17.342 26.8629 17.736C27.4799 16.51 28.2409 15.502 28.9999 15C29.7019 15.464 30.4029 16.357 30.9909 17.456C30.4379 19.041 29.0009 20 29.0009 20H28.9999Z" fill="white"/>
<path d="M27.7 34.311C21.824 35.421 20.62 31.337 21.088 29C22.737 29 25.881 29 27.828 31.6L28 28H30L30.5 38.5C30.5 38.5 29.75 39 29 39C28.25 39 27.5 38.5 27.5 38.5L27.7 34.311Z" fill="white"/>
<path d="M31.373 34.47C36.267 34.862 37.345 31.174 36.91 29C35.508 29 32.985 29 31.05 30.598L31.372 34.469L31.373 34.47Z" fill="white"/>
<defs>
<filter id="filter0_f_27_21" x="0" y="-1" width="58" height="64" filterUnits="userSpaceOnUse" color-interpolation-filters="sRGB">
<feFlood flood-opacity="0" result="BackgroundImageFix"/>
<feBlend mode="normal" in="SourceGraphic" in2="BackgroundImageFix" result="shape"/>
<feGaussianBlur stdDeviation="3" result="effect1_foregroundBlur_27_21"/>
</filter>
</defs>
</svg>
