<svg width="161" height="18" viewBox="0 0 161 18" fill="none" xmlns="http://www.w3.org/2000/svg">
<path d="M113.444 3.72559V9.39453H112.627V2.81152H113.374L113.444 3.72559ZM116.648 5.14941V5.2417C116.648 5.5874 116.607 5.9082 116.525 6.2041C116.443 6.49707 116.323 6.75195 116.165 6.96875C116.009 7.18555 115.817 7.354 115.589 7.47412C115.36 7.59424 115.098 7.6543 114.802 7.6543C114.5 7.6543 114.234 7.60449 114.002 7.50488C113.771 7.40527 113.575 7.26025 113.414 7.06982C113.252 6.87939 113.124 6.65088 113.027 6.38428C112.933 6.11768 112.869 5.81738 112.833 5.4834V4.99121C112.869 4.63965 112.935 4.32471 113.031 4.04639C113.128 3.76807 113.255 3.53076 113.414 3.33447C113.575 3.13525 113.77 2.98437 113.998 2.88184C114.227 2.77637 114.49 2.72363 114.789 2.72363C115.088 2.72363 115.353 2.78223 115.584 2.89941C115.816 3.01367 116.011 3.17773 116.169 3.3916C116.327 3.60547 116.446 3.86182 116.525 4.16064C116.607 4.45654 116.648 4.78613 116.648 5.14941ZM115.831 5.2417V5.14941C115.831 4.91211 115.806 4.68945 115.756 4.48145C115.706 4.27051 115.628 4.08594 115.523 3.92773C115.42 3.7666 115.289 3.64062 115.127 3.5498C114.966 3.45605 114.774 3.40918 114.552 3.40918C114.347 3.40918 114.168 3.44434 114.016 3.51465C113.866 3.58496 113.739 3.68018 113.633 3.80029C113.528 3.91748 113.441 4.05225 113.374 4.20459C113.31 4.354 113.261 4.50928 113.229 4.67041V5.80859C113.288 6.01367 113.37 6.20703 113.475 6.38867C113.581 6.56738 113.721 6.7124 113.897 6.82373C114.073 6.93213 114.294 6.98633 114.561 6.98633C114.78 6.98633 114.969 6.94092 115.127 6.8501C115.289 6.75635 115.42 6.62891 115.523 6.46777C115.628 6.30664 115.706 6.12207 115.756 5.91406C115.806 5.70312 115.831 5.479 115.831 5.2417ZM120.489 6.75342V4.30566C120.489 4.11816 120.451 3.95557 120.375 3.81787C120.301 3.67725 120.19 3.56885 120.041 3.49268C119.891 3.4165 119.707 3.37842 119.487 3.37842C119.282 3.37842 119.102 3.41357 118.946 3.48389C118.794 3.5542 118.674 3.64648 118.586 3.76074C118.501 3.875 118.458 3.99805 118.458 4.12988H117.646C117.646 3.95996 117.689 3.7915 117.777 3.62451C117.865 3.45752 117.991 3.30664 118.155 3.17188C118.322 3.03418 118.521 2.92578 118.753 2.84668C118.987 2.76465 119.248 2.72363 119.535 2.72363C119.881 2.72363 120.186 2.78223 120.449 2.89941C120.716 3.0166 120.924 3.19385 121.073 3.43115C121.226 3.66553 121.302 3.95996 121.302 4.31445V6.5293C121.302 6.6875 121.315 6.85596 121.341 7.03467C121.371 7.21338 121.413 7.36719 121.469 7.49609V7.56641H120.621C120.58 7.47266 120.547 7.34814 120.524 7.19287C120.5 7.03467 120.489 6.88818 120.489 6.75342ZM120.629 4.68359L120.638 5.25488H119.816C119.585 5.25488 119.378 5.27393 119.197 5.31201C119.015 5.34717 118.863 5.40137 118.74 5.47461C118.617 5.54785 118.523 5.64014 118.458 5.75146C118.394 5.85986 118.362 5.9873 118.362 6.13379C118.362 6.2832 118.396 6.41943 118.463 6.54248C118.53 6.66553 118.631 6.76367 118.766 6.83691C118.904 6.90723 119.072 6.94238 119.271 6.94238C119.521 6.94238 119.74 6.88965 119.931 6.78418C120.121 6.67871 120.272 6.5498 120.383 6.39746C120.498 6.24512 120.559 6.09717 120.568 5.95361L120.915 6.34473C120.895 6.46777 120.839 6.604 120.748 6.75342C120.657 6.90283 120.536 7.04639 120.383 7.18408C120.234 7.31885 120.055 7.43164 119.847 7.52246C119.642 7.61035 119.411 7.6543 119.153 7.6543C118.831 7.6543 118.548 7.59131 118.305 7.46533C118.064 7.33936 117.877 7.1709 117.742 6.95996C117.61 6.74609 117.544 6.50732 117.544 6.24365C117.544 5.98877 117.594 5.76465 117.694 5.57129C117.793 5.375 117.937 5.2124 118.125 5.0835C118.312 4.95166 118.538 4.85205 118.801 4.78467C119.065 4.71729 119.359 4.68359 119.685 4.68359H120.629ZM124.356 5.29443H123.481V4.79346H124.29C124.516 4.79346 124.694 4.76562 124.826 4.70996C124.958 4.65137 125.052 4.5708 125.107 4.46826C125.163 4.36572 125.191 4.24561 125.191 4.10791C125.191 3.98486 125.159 3.86914 125.094 3.76074C125.033 3.64941 124.933 3.56006 124.795 3.49268C124.658 3.42236 124.473 3.38721 124.242 3.38721C124.054 3.38721 123.884 3.4209 123.732 3.48828C123.58 3.55273 123.458 3.64209 123.367 3.75635C123.279 3.86768 123.235 3.99365 123.235 4.13428H122.422C122.422 3.84424 122.504 3.59521 122.668 3.38721C122.835 3.17627 123.057 3.01367 123.332 2.89941C123.61 2.78516 123.914 2.72803 124.242 2.72803C124.517 2.72803 124.763 2.75879 124.98 2.82031C125.2 2.87891 125.386 2.9668 125.538 3.08398C125.69 3.19824 125.806 3.3418 125.885 3.51465C125.967 3.68457 126.008 3.88232 126.008 4.10791C126.008 4.26904 125.97 4.42139 125.894 4.56494C125.818 4.7085 125.708 4.83594 125.564 4.94727C125.421 5.05566 125.247 5.14062 125.042 5.20215C124.839 5.26367 124.611 5.29443 124.356 5.29443ZM123.481 4.98682H124.356C124.64 4.98682 124.891 5.01465 125.107 5.07031C125.324 5.12305 125.506 5.20215 125.652 5.30762C125.799 5.41309 125.909 5.54346 125.982 5.69873C126.058 5.85107 126.096 6.02686 126.096 6.22607C126.096 6.44873 126.051 6.64941 125.96 6.82812C125.872 7.00391 125.746 7.15332 125.582 7.27637C125.418 7.39941 125.222 7.49316 124.993 7.55762C124.768 7.62207 124.517 7.6543 124.242 7.6543C123.934 7.6543 123.635 7.60156 123.345 7.49609C123.055 7.39062 122.816 7.22803 122.629 7.0083C122.441 6.78564 122.348 6.50293 122.348 6.16016H123.161C123.161 6.30371 123.206 6.43994 123.297 6.56885C123.388 6.69775 123.514 6.80176 123.675 6.88086C123.839 6.95996 124.028 6.99951 124.242 6.99951C124.47 6.99951 124.661 6.96436 124.813 6.89404C124.965 6.82373 125.08 6.72998 125.156 6.61279C125.235 6.49561 125.274 6.36816 125.274 6.23047C125.274 6.05176 125.239 5.9082 125.169 5.7998C125.099 5.69141 124.99 5.6123 124.844 5.5625C124.7 5.50977 124.516 5.4834 124.29 5.4834H123.481V4.98682ZM127.964 3.72559V9.39453H127.146V2.81152H127.894L127.964 3.72559ZM131.167 5.14941V5.2417C131.167 5.5874 131.126 5.9082 131.044 6.2041C130.962 6.49707 130.842 6.75195 130.684 6.96875C130.529 7.18555 130.337 7.354 130.108 7.47412C129.88 7.59424 129.618 7.6543 129.322 7.6543C129.02 7.6543 128.753 7.60449 128.522 7.50488C128.291 7.40527 128.094 7.26025 127.933 7.06982C127.772 6.87939 127.643 6.65088 127.546 6.38428C127.453 6.11768 127.388 5.81738 127.353 5.4834V4.99121C127.388 4.63965 127.454 4.32471 127.551 4.04639C127.647 3.76807 127.775 3.53076 127.933 3.33447C128.094 3.13525 128.289 2.98437 128.518 2.88184C128.746 2.77637 129.01 2.72363 129.309 2.72363C129.607 2.72363 129.873 2.78223 130.104 2.89941C130.335 3.01367 130.53 3.17773 130.688 3.3916C130.847 3.60547 130.965 3.86182 131.044 4.16064C131.126 4.45654 131.167 4.78613 131.167 5.14941ZM130.35 5.2417V5.14941C130.35 4.91211 130.325 4.68945 130.275 4.48145C130.226 4.27051 130.148 4.08594 130.042 3.92773C129.94 3.7666 129.808 3.64062 129.647 3.5498C129.486 3.45605 129.294 3.40918 129.071 3.40918C128.866 3.40918 128.688 3.44434 128.535 3.51465C128.386 3.58496 128.258 3.68018 128.153 3.80029C128.047 3.91748 127.961 4.05225 127.894 4.20459C127.829 4.354 127.781 4.50928 127.749 4.67041V5.80859C127.807 6.01367 127.889 6.20703 127.995 6.38867C128.1 6.56738 128.241 6.7124 128.417 6.82373C128.592 6.93213 128.813 6.98633 129.08 6.98633C129.3 6.98633 129.489 6.94092 129.647 6.8501C129.808 6.75635 129.94 6.62891 130.042 6.46777C130.148 6.30664 130.226 6.12207 130.275 5.91406C130.325 5.70312 130.35 5.479 130.35 5.2417ZM135.008 6.75342V4.30566C135.008 4.11816 134.97 3.95557 134.894 3.81787C134.821 3.67725 134.709 3.56885 134.56 3.49268C134.411 3.4165 134.226 3.37842 134.006 3.37842C133.801 3.37842 133.621 3.41357 133.466 3.48389C133.313 3.5542 133.193 3.64648 133.105 3.76074C133.021 3.875 132.978 3.99805 132.978 4.12988H132.165C132.165 3.95996 132.209 3.7915 132.297 3.62451C132.385 3.45752 132.511 3.30664 132.675 3.17188C132.842 3.03418 133.041 2.92578 133.272 2.84668C133.507 2.76465 133.768 2.72363 134.055 2.72363C134.4 2.72363 134.705 2.78223 134.969 2.89941C135.235 3.0166 135.443 3.19385 135.593 3.43115C135.745 3.66553 135.821 3.95996 135.821 4.31445V6.5293C135.821 6.6875 135.834 6.85596 135.861 7.03467C135.89 7.21338 135.933 7.36719 135.988 7.49609V7.56641H135.14C135.099 7.47266 135.067 7.34814 135.043 7.19287C135.02 7.03467 135.008 6.88818 135.008 6.75342ZM135.149 4.68359L135.158 5.25488H134.336C134.104 5.25488 133.898 5.27393 133.716 5.31201C133.535 5.34717 133.382 5.40137 133.259 5.47461C133.136 5.54785 133.042 5.64014 132.978 5.75146C132.914 5.85986 132.881 5.9873 132.881 6.13379C132.881 6.2832 132.915 6.41943 132.982 6.54248C133.05 6.66553 133.151 6.76367 133.286 6.83691C133.423 6.90723 133.592 6.94238 133.791 6.94238C134.04 6.94238 134.26 6.88965 134.45 6.78418C134.641 6.67871 134.792 6.5498 134.903 6.39746C135.017 6.24512 135.079 6.09717 135.087 5.95361L135.435 6.34473C135.414 6.46777 135.358 6.604 135.268 6.75342C135.177 6.90283 135.055 7.04639 134.903 7.18408C134.753 7.31885 134.575 7.43164 134.367 7.52246C134.162 7.61035 133.93 7.6543 133.672 7.6543C133.35 7.6543 133.067 7.59131 132.824 7.46533C132.584 7.33936 132.396 7.1709 132.262 6.95996C132.13 6.74609 132.064 6.50732 132.064 6.24365C132.064 5.98877 132.114 5.76465 132.213 5.57129C132.313 5.375 132.457 5.2124 132.644 5.0835C132.832 4.95166 133.057 4.85205 133.321 4.78467C133.584 4.71729 133.879 4.68359 134.204 4.68359H135.149ZM140.15 0.741699H140.818C140.818 1.02881 140.774 1.25732 140.686 1.42725C140.598 1.59424 140.478 1.72314 140.326 1.81396C140.176 1.90479 140.006 1.97363 139.816 2.02051C139.628 2.06738 139.434 2.11279 139.231 2.15674C138.979 2.20947 138.745 2.29297 138.528 2.40723C138.314 2.51855 138.13 2.67676 137.975 2.88184C137.822 3.08691 137.709 3.35352 137.636 3.68164C137.566 4.00977 137.547 4.41553 137.579 4.89893V5.30322H136.911V4.89893C136.911 4.35693 136.962 3.88379 137.065 3.47949C137.17 3.0752 137.318 2.73389 137.509 2.45557C137.699 2.17725 137.925 1.95605 138.186 1.79199C138.449 1.62793 138.739 1.51514 139.056 1.45361C139.284 1.40967 139.48 1.36279 139.645 1.31299C139.809 1.26025 139.933 1.18994 140.018 1.10205C140.106 1.01416 140.15 0.894043 140.15 0.741699ZM139.188 3.08398C139.498 3.08398 139.775 3.13818 140.018 3.24658C140.261 3.35498 140.468 3.50586 140.638 3.69922C140.808 3.89258 140.937 4.12109 141.024 4.38477C141.115 4.64551 141.161 4.92969 141.161 5.2373V5.33398C141.161 5.66504 141.112 5.97266 141.016 6.25684C140.922 6.53809 140.783 6.78418 140.598 6.99512C140.417 7.20312 140.194 7.36572 139.93 7.48291C139.669 7.6001 139.372 7.65869 139.038 7.65869C138.704 7.65869 138.405 7.6001 138.142 7.48291C137.881 7.36572 137.658 7.20312 137.474 6.99512C137.289 6.78418 137.148 6.53809 137.052 6.25684C136.958 5.97266 136.911 5.66504 136.911 5.33398V5.2373C136.911 5.16406 136.924 5.09229 136.951 5.02197C136.977 4.95166 137.009 4.87988 137.047 4.80664C137.088 4.7334 137.125 4.65576 137.157 4.57373C137.266 4.31006 137.414 4.06543 137.601 3.83984C137.792 3.61426 138.019 3.43262 138.282 3.29492C138.549 3.1543 138.851 3.08398 139.188 3.08398ZM139.029 3.74756C138.73 3.74756 138.484 3.81641 138.291 3.9541C138.101 4.0918 137.958 4.2749 137.865 4.50342C137.771 4.729 137.724 4.97363 137.724 5.2373V5.33398C137.724 5.55664 137.75 5.76758 137.803 5.9668C137.856 6.16602 137.935 6.34326 138.041 6.49854C138.149 6.65088 138.285 6.771 138.449 6.85889C138.616 6.94678 138.812 6.99072 139.038 6.99072C139.264 6.99072 139.458 6.94678 139.623 6.85889C139.787 6.771 139.921 6.65088 140.027 6.49854C140.132 6.34326 140.211 6.16602 140.264 5.9668C140.317 5.76758 140.343 5.55664 140.343 5.33398V5.2373C140.343 5.03809 140.317 4.84912 140.264 4.67041C140.211 4.4917 140.131 4.3335 140.022 4.1958C139.917 4.05811 139.781 3.94971 139.614 3.87061C139.45 3.78857 139.255 3.74756 139.029 3.74756ZM141.868 5.2417V5.14062C141.868 4.79785 141.918 4.47998 142.018 4.18701C142.117 3.89111 142.261 3.63477 142.448 3.41797C142.636 3.19824 142.863 3.02832 143.129 2.9082C143.396 2.78516 143.695 2.72363 144.026 2.72363C144.36 2.72363 144.66 2.78516 144.927 2.9082C145.196 3.02832 145.425 3.19824 145.612 3.41797C145.803 3.63477 145.948 3.89111 146.047 4.18701C146.147 4.47998 146.197 4.79785 146.197 5.14062V5.2417C146.197 5.58447 146.147 5.90234 146.047 6.19531C145.948 6.48828 145.803 6.74463 145.612 6.96436C145.425 7.18115 145.198 7.35107 144.931 7.47412C144.667 7.59424 144.369 7.6543 144.035 7.6543C143.701 7.6543 143.4 7.59424 143.134 7.47412C142.867 7.35107 142.639 7.18115 142.448 6.96436C142.261 6.74463 142.117 6.48828 142.018 6.19531C141.918 5.90234 141.868 5.58447 141.868 5.2417ZM142.681 5.14062V5.2417C142.681 5.479 142.709 5.70312 142.765 5.91406C142.82 6.12207 142.904 6.30664 143.015 6.46777C143.129 6.62891 143.271 6.75635 143.441 6.8501C143.611 6.94092 143.809 6.98633 144.035 6.98633C144.257 6.98633 144.452 6.94092 144.619 6.8501C144.789 6.75635 144.93 6.62891 145.041 6.46777C145.152 6.30664 145.236 6.12207 145.292 5.91406C145.35 5.70312 145.379 5.479 145.379 5.2417V5.14062C145.379 4.90625 145.35 4.68506 145.292 4.47705C145.236 4.26611 145.151 4.08008 145.037 3.91895C144.925 3.75488 144.785 3.62598 144.615 3.53223C144.448 3.43848 144.251 3.3916 144.026 3.3916C143.803 3.3916 143.607 3.43848 143.437 3.53223C143.27 3.62598 143.129 3.75488 143.015 3.91895C142.904 4.08008 142.82 4.26611 142.765 4.47705C142.709 4.68506 142.681 4.90625 142.681 5.14062ZM149.058 2.81152V7.56641H148.24V2.81152H149.058ZM150.653 2.81152V3.4707H146.676V2.81152H150.653ZM152.336 2.81152V7.56641H151.523V2.81152H152.336ZM155.456 2.81152L153.202 5.53613H152.063L151.94 4.82422H152.872L154.467 2.81152H155.456ZM154.582 7.56641L152.833 5.41309L153.355 4.82422L155.614 7.56641H154.582ZM159.125 6.75342V4.30566C159.125 4.11816 159.087 3.95557 159.011 3.81787C158.938 3.67725 158.827 3.56885 158.677 3.49268C158.528 3.4165 158.343 3.37842 158.124 3.37842C157.918 3.37842 157.738 3.41357 157.583 3.48389C157.431 3.5542 157.311 3.64648 157.223 3.76074C157.138 3.875 157.095 3.99805 157.095 4.12988H156.282C156.282 3.95996 156.326 3.7915 156.414 3.62451C156.502 3.45752 156.628 3.30664 156.792 3.17188C156.959 3.03418 157.158 2.92578 157.39 2.84668C157.624 2.76465 157.885 2.72363 158.172 2.72363C158.518 2.72363 158.822 2.78223 159.086 2.89941C159.353 3.0166 159.561 3.19385 159.71 3.43115C159.862 3.66553 159.938 3.95996 159.938 4.31445V6.5293C159.938 6.6875 159.952 6.85596 159.978 7.03467C160.007 7.21338 160.05 7.36719 160.105 7.49609V7.56641H159.257C159.216 7.47266 159.184 7.34814 159.161 7.19287C159.137 7.03467 159.125 6.88818 159.125 6.75342ZM159.266 4.68359L159.275 5.25488H158.453C158.222 5.25488 158.015 5.27393 157.833 5.31201C157.652 5.34717 157.5 5.40137 157.376 5.47461C157.253 5.54785 157.16 5.64014 157.095 5.75146C157.031 5.85986 156.999 5.9873 156.999 6.13379C156.999 6.2832 157.032 6.41943 157.1 6.54248C157.167 6.66553 157.268 6.76367 157.403 6.83691C157.541 6.90723 157.709 6.94238 157.908 6.94238C158.157 6.94238 158.377 6.88965 158.567 6.78418C158.758 6.67871 158.909 6.5498 159.02 6.39746C159.134 6.24512 159.196 6.09717 159.205 5.95361L159.552 6.34473C159.531 6.46777 159.476 6.604 159.385 6.75342C159.294 6.90283 159.172 7.04639 159.02 7.18408C158.871 7.31885 158.692 7.43164 158.484 7.52246C158.279 7.61035 158.047 7.6543 157.79 7.6543C157.467 7.6543 157.185 7.59131 156.941 7.46533C156.701 7.33936 156.514 7.1709 156.379 6.95996C156.247 6.74609 156.181 6.50732 156.181 6.24365C156.181 5.98877 156.231 5.76465 156.331 5.57129C156.43 5.375 156.574 5.2124 156.761 5.0835C156.949 4.95166 157.174 4.85205 157.438 4.78467C157.702 4.71729 157.996 4.68359 158.321 4.68359H159.266ZM114.534 14.9863C114.728 14.9863 114.906 14.9468 115.07 14.8677C115.234 14.7886 115.369 14.6802 115.475 14.5425C115.58 14.4019 115.64 14.2422 115.655 14.0635H116.428C116.414 14.3447 116.318 14.6069 116.143 14.8501C115.97 15.0903 115.743 15.2852 115.461 15.4346C115.18 15.5811 114.871 15.6543 114.534 15.6543C114.177 15.6543 113.865 15.5913 113.598 15.4653C113.334 15.3394 113.115 15.1665 112.939 14.9468C112.766 14.7271 112.636 14.4751 112.548 14.1909C112.463 13.9038 112.42 13.6006 112.42 13.2812V13.0967C112.42 12.7773 112.463 12.4756 112.548 12.1914C112.636 11.9043 112.766 11.6509 112.939 11.4312C113.115 11.2114 113.334 11.0386 113.598 10.9126C113.865 10.7866 114.177 10.7236 114.534 10.7236C114.906 10.7236 115.231 10.7998 115.51 10.9521C115.788 11.1016 116.006 11.3066 116.165 11.5674C116.326 11.8252 116.414 12.1182 116.428 12.4463H115.655C115.64 12.25 115.584 12.0728 115.488 11.9146C115.394 11.7563 115.265 11.6304 115.101 11.5366C114.94 11.4399 114.751 11.3916 114.534 11.3916C114.285 11.3916 114.076 11.4414 113.906 11.541C113.739 11.6377 113.605 11.7695 113.506 11.9365C113.409 12.1006 113.339 12.2837 113.295 12.4858C113.254 12.6851 113.233 12.8887 113.233 13.0967V13.2812C113.233 13.4893 113.254 13.6943 113.295 13.8965C113.336 14.0986 113.405 14.2817 113.501 14.4458C113.601 14.6099 113.734 14.7417 113.901 14.8413C114.071 14.938 114.282 14.9863 114.534 14.9863ZM120.146 14.7534V12.3057C120.146 12.1182 120.108 11.9556 120.032 11.8179C119.958 11.6772 119.847 11.5688 119.698 11.4927C119.548 11.4165 119.364 11.3784 119.144 11.3784C118.939 11.3784 118.759 11.4136 118.604 11.4839C118.451 11.5542 118.331 11.6465 118.243 11.7607C118.158 11.875 118.116 11.998 118.116 12.1299H117.303C117.303 11.96 117.347 11.7915 117.435 11.6245C117.522 11.4575 117.648 11.3066 117.812 11.1719C117.979 11.0342 118.179 10.9258 118.41 10.8467C118.645 10.7646 118.905 10.7236 119.192 10.7236C119.538 10.7236 119.843 10.7822 120.106 10.8994C120.373 11.0166 120.581 11.1938 120.73 11.4312C120.883 11.6655 120.959 11.96 120.959 12.3145V14.5293C120.959 14.6875 120.972 14.856 120.999 15.0347C121.028 15.2134 121.07 15.3672 121.126 15.4961V15.5664H120.278C120.237 15.4727 120.205 15.3481 120.181 15.1929C120.158 15.0347 120.146 14.8882 120.146 14.7534ZM120.287 12.6836L120.295 13.2549H119.474C119.242 13.2549 119.036 13.2739 118.854 13.312C118.672 13.3472 118.52 13.4014 118.397 13.4746C118.274 13.5479 118.18 13.6401 118.116 13.7515C118.051 13.8599 118.019 13.9873 118.019 14.1338C118.019 14.2832 118.053 14.4194 118.12 14.5425C118.188 14.6655 118.289 14.7637 118.423 14.8369C118.561 14.9072 118.729 14.9424 118.929 14.9424C119.178 14.9424 119.397 14.8896 119.588 14.7842C119.778 14.6787 119.929 14.5498 120.041 14.3975C120.155 14.2451 120.216 14.0972 120.225 13.9536L120.572 14.3447C120.552 14.4678 120.496 14.604 120.405 14.7534C120.314 14.9028 120.193 15.0464 120.041 15.1841C119.891 15.3188 119.712 15.4316 119.504 15.5225C119.299 15.6104 119.068 15.6543 118.81 15.6543C118.488 15.6543 118.205 15.5913 117.962 15.4653C117.722 15.3394 117.534 15.1709 117.399 14.96C117.268 14.7461 117.202 14.5073 117.202 14.2437C117.202 13.9888 117.251 13.7646 117.351 13.5713C117.451 13.375 117.594 13.2124 117.782 13.0835C117.969 12.9517 118.195 12.8521 118.458 12.7847C118.722 12.7173 119.017 12.6836 119.342 12.6836H120.287ZM123.117 14.2788L125.31 10.8115H126.127V15.5664H125.31V12.0991L123.117 15.5664H122.308V10.8115H123.117V14.2788ZM124.866 9.08887H125.525C125.525 9.31738 125.472 9.521 125.367 9.69971C125.261 9.87549 125.11 10.0132 124.914 10.1128C124.718 10.2124 124.485 10.2622 124.215 10.2622C123.808 10.2622 123.486 10.1538 123.249 9.93701C123.014 9.71729 122.897 9.43457 122.897 9.08887H123.556C123.556 9.26172 123.606 9.41406 123.706 9.5459C123.805 9.67773 123.975 9.74365 124.215 9.74365C124.45 9.74365 124.617 9.67773 124.716 9.5459C124.816 9.41406 124.866 9.26172 124.866 9.08887ZM129.37 10.8115V15.5664H128.553V10.8115H129.37ZM130.965 10.8115V11.4707H126.988V10.8115H130.965ZM134.499 14.7534V12.3057C134.499 12.1182 134.46 11.9556 134.384 11.8179C134.311 11.6772 134.2 11.5688 134.05 11.4927C133.901 11.4165 133.716 11.3784 133.497 11.3784C133.292 11.3784 133.111 11.4136 132.956 11.4839C132.804 11.5542 132.684 11.6465 132.596 11.7607C132.511 11.875 132.468 11.998 132.468 12.1299H131.655C131.655 11.96 131.699 11.7915 131.787 11.6245C131.875 11.4575 132.001 11.3066 132.165 11.1719C132.332 11.0342 132.531 10.9258 132.763 10.8467C132.997 10.7646 133.258 10.7236 133.545 10.7236C133.891 10.7236 134.195 10.7822 134.459 10.8994C134.726 11.0166 134.934 11.1938 135.083 11.4312C135.235 11.6655 135.312 11.96 135.312 12.3145V14.5293C135.312 14.6875 135.325 14.856 135.351 15.0347C135.38 15.2134 135.423 15.3672 135.479 15.4961V15.5664H134.63C134.589 15.4727 134.557 15.3481 134.534 15.1929C134.51 15.0347 134.499 14.8882 134.499 14.7534ZM134.639 12.6836L134.648 13.2549H133.826C133.595 13.2549 133.388 13.2739 133.207 13.312C133.025 13.3472 132.873 13.4014 132.75 13.4746C132.626 13.5479 132.533 13.6401 132.468 13.7515C132.404 13.8599 132.372 13.9873 132.372 14.1338C132.372 14.2832 132.405 14.4194 132.473 14.5425C132.54 14.6655 132.641 14.7637 132.776 14.8369C132.914 14.9072 133.082 14.9424 133.281 14.9424C133.53 14.9424 133.75 14.8896 133.94 14.7842C134.131 14.6787 134.282 14.5498 134.393 14.3975C134.507 14.2451 134.569 14.0972 134.578 13.9536L134.925 14.3447C134.904 14.4678 134.849 14.604 134.758 14.7534C134.667 14.9028 134.545 15.0464 134.393 15.1841C134.244 15.3188 134.065 15.4316 133.857 15.5225C133.652 15.6104 133.42 15.6543 133.163 15.6543C132.84 15.6543 132.558 15.5913 132.314 15.4653C132.074 15.3394 131.887 15.1709 131.752 14.96C131.62 14.7461 131.554 14.5073 131.554 14.2437C131.554 13.9888 131.604 13.7646 131.704 13.5713C131.803 13.375 131.947 13.2124 132.134 13.0835C132.322 12.9517 132.547 12.8521 132.811 12.7847C133.075 12.7173 133.369 12.6836 133.694 12.6836H134.639Z" fill="white"/>
<rect x="103.133" y="3.14453" width="0.644594" height="12.8919" fill="white"/>
<path fill-rule="evenodd" clip-rule="evenodd" d="M12.5467 14.9068C12.5644 14.9265 12.5005 14.847 12.4179 14.7501C12.3394 14.7063 12.2071 14.5442 12.1156 14.4318C12.0964 14.408 12.0787 14.3865 12.0637 14.3688C12.0514 14.3538 12.0406 14.3415 12.0325 14.3329C11.6992 13.9827 11.3688 13.6298 11.0389 13.2763C10.9858 13.2194 10.9331 13.1622 10.8805 13.1049L10.8209 13.0401L10.787 13.0035C10.5417 12.7402 10.2967 12.4769 10.0541 12.2113C10.0625 12.2209 10.0518 12.2068 10.0298 12.1798L9.17346 11.2478C9.86234 11.0865 10.4655 10.7471 10.982 10.2302C11.7464 9.46565 12.1287 8.54555 12.1287 7.46871C12.1287 6.39245 11.7464 5.47181 10.982 4.7073C10.6047 4.3414 10.1825 4.05892 9.71413 3.85934C9.2456 3.66034 8.74777 3.56055 8.2201 3.56055H1.01766C0.737441 3.56055 0.497831 3.66314 0.298829 3.86722C0.0992123 4.07191 0 4.31433 0 4.59397C0 4.87415 0.0992123 5.11322 0.298829 5.3128C0.497831 5.51238 0.737441 5.61159 1.01766 5.61159H8.2201C8.47832 5.61159 8.71793 5.66008 8.93893 5.75706C9.15927 5.85405 9.35604 5.98879 9.52859 6.16072C9.7006 6.33327 9.83526 6.52946 9.93228 6.75046C10.0295 6.97146 10.0779 7.21053 10.0779 7.46929C10.0779 7.72805 10.0295 7.96712 9.93228 8.18812C9.83526 8.40911 9.7006 8.6025 9.52859 8.76939C9.35604 8.93629 9.15993 9.06818 8.93893 9.16517C8.71793 9.26215 8.47886 9.31064 8.2201 9.31064H1.01766C0.737441 9.31064 0.497831 9.41324 0.298829 9.61731C0.0992123 9.82197 0 10.0644 0 10.3441V14.0583C0 14.3492 0.0992123 14.5939 0.298829 14.7929C0.497831 14.9925 0.737441 15.0917 1.01766 15.0917C1.29726 15.0917 1.53972 14.9925 1.74433 14.7929C1.94849 14.5939 2.05112 14.3486 2.05112 14.0583V11.3775H6.47565L9.60865 14.7687C9.80254 14.984 10.0552 15.0917 10.3675 15.0917H12.0149C12.2194 15.0917 12.4029 15.0365 12.5675 14.9299L12.5571 14.9183L12.5467 14.9068ZM26.6245 7.11408C26.3553 6.41444 25.9461 5.78975 25.397 5.24062C24.8263 4.69149 24.1511 4.2743 23.3708 3.98901C22.5898 3.70375 21.7204 3.56109 20.7625 3.56109H19.9545C18.9967 3.56109 18.1276 3.70375 17.3473 3.98901C16.5663 4.2743 15.8911 4.69149 15.3204 5.24062C14.782 5.77906 14.3675 6.40318 14.0768 7.11408C13.9476 7.4586 13.8476 7.81657 13.778 8.18812C13.708 8.55909 13.673 8.93909 13.673 9.32641C13.673 10.0909 13.8076 10.834 14.0768 11.5551C14.3675 12.2762 14.782 12.8952 15.3204 13.4122C15.8911 13.9613 16.5663 14.3785 17.3473 14.6638C18.1276 14.9491 18.9967 15.0917 19.9545 15.0917H20.7625C21.7204 15.0917 22.5898 14.9491 23.3708 14.6638C24.1511 14.3785 24.8263 13.9613 25.397 13.4122C25.9354 12.8845 26.3445 12.2654 26.6245 11.5551C26.9044 10.8441 27.0444 10.1016 27.0444 9.32641C27.0444 8.54047 26.9044 7.80303 26.6245 7.11408ZM24.6944 10.8684C24.4956 11.3262 24.213 11.7163 23.8473 12.0394C23.4808 12.3624 23.0371 12.6105 22.5148 12.7825C21.9923 12.9544 21.4081 13.0406 20.7625 13.0406H19.9545C19.2977 13.0406 18.7086 12.9544 18.1868 12.7825C17.6646 12.6105 17.2204 12.3624 16.8544 12.0394C16.4879 11.7163 16.2083 11.3262 16.0145 10.8684C15.8211 10.4111 15.7242 9.89696 15.7242 9.32641C15.7242 8.75586 15.8211 8.24168 16.0145 7.78446C16.2083 7.32666 16.4879 6.9365 16.8544 6.61345C17.2204 6.29039 17.6646 6.0429 18.1868 5.87039C18.7086 5.69842 19.2977 5.61217 19.9545 5.61217H20.7625C21.4081 5.61217 21.9923 5.69842 22.5148 5.87039C23.0371 6.0429 23.4808 6.29039 23.8473 6.61345C24.213 6.9365 24.4956 7.32666 24.6944 7.78446C24.894 8.24168 24.9932 8.75586 24.9932 9.32641C24.9932 9.89696 24.894 10.4111 24.6944 10.8684ZM40.4992 8.25237C40.3273 8.65607 40.0901 9.01408 39.789 9.32641C40.0901 9.62804 40.3273 9.9804 40.4992 10.3841C40.6719 10.7878 40.758 11.2213 40.758 11.6842V11.7005C40.758 12.1741 40.6688 12.6156 40.4915 13.0243C40.3139 13.4336 40.0712 13.7916 39.7647 14.0983C39.4579 14.405 39.0972 14.6475 38.6826 14.825C38.2685 15.0026 37.8293 15.0917 37.3663 15.0917H30.5807H29.6474C29.3674 15.0917 29.1275 14.9919 28.9287 14.7929C28.7295 14.5939 28.6299 14.3486 28.6299 14.0583V9.32641C28.6299 9.0355 28.7295 8.79081 28.9287 8.59181C29.1052 8.41534 29.3124 8.31725 29.5528 8.29694C29.5839 8.2941 29.6155 8.29298 29.6474 8.29298H37.3663C37.732 8.29298 38.0451 8.16389 38.3035 7.90509C38.5615 7.64687 38.6907 7.32947 38.6907 6.95231C38.6907 6.58637 38.5615 6.27182 38.3035 6.00794C38.0451 5.74411 37.732 5.61217 37.3663 5.61217H29.6474C29.3674 5.61217 29.1275 5.51296 28.9287 5.31338C28.7295 5.11434 28.6299 4.87473 28.6299 4.59455C28.6299 4.31491 28.7295 4.07245 28.9287 3.8678C29.1275 3.66372 29.3674 3.56109 29.6474 3.56109H37.3663C37.8293 3.56109 38.2685 3.65018 38.6826 3.82777C39.0972 4.00535 39.4579 4.24723 39.7647 4.55452C40.0712 4.86119 40.3139 5.22201 40.4915 5.63639C40.6688 6.05078 40.758 6.48943 40.758 6.95231C40.758 7.41572 40.6719 7.84872 40.4992 8.25237ZM30.5807 10.3441V13.0406H37.3663C37.732 13.0406 38.0451 12.9116 38.3035 12.6533C38.5615 12.3945 38.6907 12.0771 38.6907 11.7005V11.6842C38.6907 11.3076 38.5615 10.9896 38.3035 10.7314C38.0451 10.4732 37.732 10.3441 37.3663 10.3441H30.5807ZM55.1631 7.11408C54.8939 6.41444 54.4847 5.78975 53.9356 5.24062C53.3649 4.69149 52.6897 4.2743 51.9087 3.98901C51.1284 3.70375 50.259 3.56109 49.3007 3.56109H48.4931C47.5349 3.56109 46.6662 3.70375 45.8852 3.98901C45.1045 4.2743 44.4289 4.69149 43.8582 5.24062C43.3199 5.77906 42.9057 6.40318 42.6154 7.11408C42.4862 7.4586 42.3862 7.81657 42.3162 8.18812C42.2466 8.55909 42.2116 8.93909 42.2116 9.32641C42.2116 10.0909 42.3458 10.834 42.6154 11.5551C42.9057 12.2762 43.3199 12.8952 43.8582 13.4122C44.4289 13.9613 45.1045 14.3785 45.8852 14.6638C46.6662 14.9491 47.5349 15.0917 48.4931 15.0917H49.3007C50.259 15.0917 51.1284 14.9491 51.9087 14.6638C52.6897 14.3785 53.3649 13.9613 53.9356 13.4122C54.474 12.8845 54.8827 12.2654 55.1631 11.5551C55.4426 10.8441 55.583 10.1016 55.583 9.32641C55.583 8.54047 55.4426 7.80303 55.1631 7.11408ZM53.233 10.8684C53.0342 11.3262 52.7508 11.7163 52.3851 12.0394C52.0194 12.3624 51.5749 12.6105 51.053 12.7825C50.5308 12.9544 49.9467 13.0406 49.3007 13.0406H48.4931C47.8363 13.0406 47.2472 12.9544 46.7254 12.7825C46.2028 12.6105 45.759 12.3624 45.3929 12.0394C45.0265 11.7163 44.7469 11.3262 44.5527 10.8684C44.3589 10.4111 44.262 9.89696 44.262 9.32641C44.262 8.75586 44.3589 8.24168 44.5527 7.78446C44.7469 7.32666 45.0265 6.9365 45.3929 6.61345C45.759 6.29039 46.2028 6.0429 46.7254 5.87039C47.2472 5.69842 47.8363 5.61217 48.4931 5.61217H49.3007C49.9467 5.61217 50.5308 5.69842 51.053 5.87039C51.5749 6.0429 52.0194 6.29039 52.3851 6.61345C52.7508 6.9365 53.0342 7.32666 53.233 7.78446C53.4318 8.24168 53.5318 8.75586 53.5318 9.32641C53.5318 9.89696 53.4318 10.4111 53.233 10.8684ZM68.4695 3.56109C68.7498 3.56109 68.9886 3.66372 69.1882 3.8678C69.3874 4.07245 69.487 4.31491 69.487 4.59455V14.0583C69.487 14.2736 69.4308 14.4648 69.3174 14.6311C69.2047 14.7986 69.0563 14.9248 68.8732 15.0111C68.7952 15.0409 68.719 15.0625 68.6444 15.0758C68.5848 15.0864 68.5268 15.0917 68.4695 15.0917C68.2007 15.0917 67.963 15.0004 67.7592 14.8172L59.41 6.96865V14.0583C59.41 14.3486 59.31 14.5939 59.1112 14.7929C58.912 14.9919 58.6724 15.0917 58.3928 15.0917C58.1125 15.0917 57.8703 14.9919 57.6661 14.7929C57.4615 14.5939 57.3588 14.3486 57.3588 14.0583V4.59455C57.3588 4.39043 57.4157 4.20439 57.5284 4.0375C57.6418 3.8706 57.7953 3.74432 57.9887 3.65807C58.1717 3.57181 58.3629 3.54532 58.562 3.57747C58.7609 3.60958 58.9362 3.70091 59.0869 3.85199L67.4362 11.6842V4.59455C67.4362 4.31491 67.5354 4.07245 67.735 3.8678C67.9338 3.66372 68.1791 3.56109 68.4695 3.56109ZM95.3899 3.8678C95.1853 3.66372 94.9434 3.56109 94.6631 3.56109H72.7813C72.501 3.56109 72.2591 3.66372 72.0546 3.8678C71.85 4.07245 71.7477 4.31491 71.7477 4.59455C71.7477 4.87473 71.85 5.11434 72.0546 5.31338C72.2591 5.51296 72.501 5.61217 72.7813 5.61217H88.6073V14.0583C88.6073 14.3486 88.7065 14.5939 88.9061 14.7929C89.1053 14.9919 89.3448 15.0917 89.6252 15.0917C89.9155 15.0917 90.1601 14.9919 90.3596 14.7929C90.5588 14.5939 90.6584 14.3486 90.6584 14.0583V5.61217H94.6631C94.9434 5.61217 95.1853 5.51296 95.3899 5.31338C95.5945 5.11434 95.6971 4.87473 95.6971 4.59455C95.6971 4.31491 95.5945 4.07245 95.3899 3.8678ZM82.8583 13.0406H73.8146V10.3598H82.8583C83.1379 10.3598 83.3775 10.2578 83.5767 10.0531C83.7762 9.84846 83.8755 9.60662 83.8755 9.32641C83.8755 9.04677 83.7762 8.80716 83.5767 8.60758C83.3775 8.40858 83.1379 8.30879 82.8583 8.30879H72.7813C72.501 8.30879 72.2591 8.40858 72.0546 8.60758C71.85 8.80716 71.7477 9.04677 71.7477 9.32641V14.0583C71.7477 14.3486 71.85 14.5939 72.0546 14.7929C72.2591 14.9919 72.501 15.0917 72.7813 15.0917H82.8583C83.1379 15.0917 83.3775 14.9919 83.5767 14.7929C83.7762 14.5939 83.8755 14.3486 83.8755 14.0583C83.8755 13.7781 83.7762 13.5391 83.5767 13.3395C83.3775 13.1404 83.1379 13.0406 82.8583 13.0406Z" fill="white"/>
</svg>
